<mxfile host="app.diagrams.net" agent="Mozilla/5.0 (Windows NT 10.0; Win64; x64) AppleWebKit/537.36 (KHTML, like Gecko) Chrome/130.0.0.0 Safari/537.36" version="24.8.4">
  <diagram name="Page-1" id="c4acf3e9-155e-7222-9cf6-157b1a14988f">
    <mxGraphModel dx="2350" dy="1896" grid="1" gridSize="10" guides="1" tooltips="1" connect="1" arrows="1" fold="1" page="1" pageScale="1" pageWidth="850" pageHeight="1100" background="none" math="0" shadow="0">
      <root>
        <mxCell id="0" />
        <mxCell id="1" parent="0" />
        <mxCell id="17acba5748e5396b-1" value="frame" style="shape=umlFrame;whiteSpace=wrap;html=1;rounded=0;shadow=0;comic=0;labelBackgroundColor=none;strokeWidth=1;fontFamily=Verdana;fontSize=10;align=center;movable=1;resizable=1;rotatable=1;deletable=1;editable=1;locked=0;connectable=1;" parent="1" vertex="1">
          <mxGeometry x="-160" y="-40" width="1250" height="1110" as="geometry" />
        </mxCell>
        <mxCell id="5d2195bd80daf111-18" value="&lt;p style=&quot;margin:0px;margin-top:4px;text-align:center;&quot;&gt;&lt;b&gt;CheckoutController&lt;/b&gt;&lt;/p&gt;&lt;hr size=&quot;1&quot;&gt;&lt;p style=&quot;margin:0px;margin-left:4px;&quot;&gt;-checkoutService: DiscountService&lt;/p&gt;&lt;hr size=&quot;1&quot;&gt;&lt;p style=&quot;margin:0px;margin-left:4px;&quot;&gt;+calcuclateDiscountForBill&lt;/p&gt;" style="verticalAlign=top;align=left;overflow=fill;fontSize=12;fontFamily=Helvetica;html=1;rounded=0;shadow=0;comic=0;labelBackgroundColor=none;strokeWidth=1" parent="1" vertex="1">
          <mxGeometry x="-120" y="56.5" width="200" height="93" as="geometry" />
        </mxCell>
        <mxCell id="SCgbZ-K9dKOpTMKbeCM--1" value="&lt;p style=&quot;margin:0px;margin-top:4px;text-align:center;&quot;&gt;&lt;b&gt;CheckoutService&lt;/b&gt;&lt;/p&gt;&lt;hr size=&quot;1&quot;&gt;&lt;p style=&quot;margin:0px;margin-left:4px;&quot;&gt;-discountFactory: DiscountFactory&lt;/p&gt;&lt;hr size=&quot;1&quot;&gt;&lt;p style=&quot;margin:0px;margin-left:4px;&quot;&gt;+calcuclateDiscount&lt;/p&gt;&lt;p style=&quot;margin:0px;margin-left:4px;&quot;&gt;-getDiscountStrategy&lt;/p&gt;" style="verticalAlign=top;align=left;overflow=fill;fontSize=12;fontFamily=Helvetica;html=1;rounded=0;shadow=0;comic=0;labelBackgroundColor=none;strokeWidth=1" vertex="1" parent="1">
          <mxGeometry x="150" y="-20" width="195" height="93" as="geometry" />
        </mxCell>
        <mxCell id="SCgbZ-K9dKOpTMKbeCM--5" value="&lt;p style=&quot;margin:0px;margin-top:4px;text-align:center;&quot;&gt;&lt;b&gt;DiscountFactory&lt;/b&gt;&lt;/p&gt;&lt;hr size=&quot;1&quot;&gt;&lt;p style=&quot;margin:0px;margin-left:4px;&quot;&gt;-&lt;span style=&quot;background-color: initial;&quot;&gt;discountStrategyMap: Map&amp;lt;String, DiscountStrategy&amp;gt;&lt;/span&gt;&lt;/p&gt;&lt;hr size=&quot;1&quot;&gt;&lt;p style=&quot;margin:0px;margin-left:4px;&quot;&gt;+&lt;span style=&quot;background-color: initial;&quot;&gt;getDiscountStrategy&lt;/span&gt;&lt;/p&gt;" style="verticalAlign=top;align=left;overflow=fill;fontSize=12;fontFamily=Helvetica;html=1;rounded=0;shadow=0;comic=0;labelBackgroundColor=none;strokeWidth=1" vertex="1" parent="1">
          <mxGeometry x="425" y="53" width="330" height="100" as="geometry" />
        </mxCell>
        <mxCell id="SCgbZ-K9dKOpTMKbeCM--12" value="AuthenticationService" style="swimlane;fontStyle=1;align=center;verticalAlign=top;childLayout=stackLayout;horizontal=1;startSize=26;horizontalStack=0;resizeParent=1;resizeParentMax=0;resizeLast=0;collapsible=1;marginBottom=0;whiteSpace=wrap;html=1;" vertex="1" parent="1">
          <mxGeometry x="-97.5" y="380" width="285" height="150" as="geometry">
            <mxRectangle x="335" y="270" width="160" height="30" as="alternateBounds" />
          </mxGeometry>
        </mxCell>
        <mxCell id="SCgbZ-K9dKOpTMKbeCM--13" value="-jwtService: JWTService&lt;div&gt;-authenticationManager: AuthenticationManager&lt;br&gt;&lt;div&gt;-passwordEncoder: PasswordEncoder&lt;/div&gt;&lt;/div&gt;&lt;div&gt;-userRepostiroy: UserRepository&lt;/div&gt;" style="text;strokeColor=none;fillColor=none;align=left;verticalAlign=top;spacingLeft=4;spacingRight=4;overflow=hidden;rotatable=0;points=[[0,0.5],[1,0.5]];portConstraint=eastwest;whiteSpace=wrap;html=1;" vertex="1" parent="SCgbZ-K9dKOpTMKbeCM--12">
          <mxGeometry y="26" width="285" height="74" as="geometry" />
        </mxCell>
        <mxCell id="SCgbZ-K9dKOpTMKbeCM--14" value="" style="line;strokeWidth=1;fillColor=none;align=left;verticalAlign=middle;spacingTop=-1;spacingLeft=3;spacingRight=3;rotatable=0;labelPosition=right;points=[];portConstraint=eastwest;strokeColor=inherit;" vertex="1" parent="SCgbZ-K9dKOpTMKbeCM--12">
          <mxGeometry y="100" width="285" height="10" as="geometry" />
        </mxCell>
        <mxCell id="SCgbZ-K9dKOpTMKbeCM--15" value="+authenticate&lt;div&gt;+register&lt;/div&gt;" style="text;strokeColor=none;fillColor=none;align=left;verticalAlign=top;spacingLeft=4;spacingRight=4;overflow=hidden;rotatable=0;points=[[0,0.5],[1,0.5]];portConstraint=eastwest;whiteSpace=wrap;html=1;" vertex="1" parent="SCgbZ-K9dKOpTMKbeCM--12">
          <mxGeometry y="110" width="285" height="40" as="geometry" />
        </mxCell>
        <mxCell id="SCgbZ-K9dKOpTMKbeCM--16" value="&lt;p style=&quot;margin:0px;margin-top:4px;text-align:center;&quot;&gt;&lt;b&gt;AuthenticationController&lt;span style=&quot;white-space: pre;&quot;&gt;&#x9;&lt;/span&gt;&lt;/b&gt;&lt;/p&gt;&lt;hr size=&quot;1&quot;&gt;&lt;p style=&quot;margin:0px;margin-left:4px;&quot;&gt;-authenticationService: AuthenticationSerivce&lt;/p&gt;&lt;hr size=&quot;1&quot;&gt;&lt;p style=&quot;margin:0px;margin-left:4px;&quot;&gt;+authenticate&lt;/p&gt;&lt;p style=&quot;margin:0px;margin-left:4px;&quot;&gt;+register&lt;/p&gt;" style="verticalAlign=top;align=left;overflow=fill;fontSize=12;fontFamily=Helvetica;html=1;rounded=0;shadow=0;comic=0;labelBackgroundColor=none;strokeWidth=1" vertex="1" parent="1">
          <mxGeometry x="-90" y="210" width="270" height="93" as="geometry" />
        </mxCell>
        <mxCell id="SCgbZ-K9dKOpTMKbeCM--17" value="&lt;p style=&quot;margin:0px;margin-top:4px;text-align:center;&quot;&gt;&lt;i&gt;&amp;lt;&amp;lt;Interface&amp;gt;&amp;gt;&lt;/i&gt;&lt;br&gt;&lt;b&gt;DiscountStrategy&lt;/b&gt;&lt;/p&gt;&lt;hr size=&quot;1&quot; style=&quot;border-style:solid;&quot;&gt;&lt;p style=&quot;margin:0px;margin-left:4px;&quot;&gt;&lt;br&gt;&lt;/p&gt;&lt;hr size=&quot;1&quot; style=&quot;border-style:solid;&quot;&gt;&lt;p style=&quot;margin:0px;margin-left:4px;&quot;&gt;+&amp;nbsp;calculateDiscount&lt;/p&gt;" style="verticalAlign=top;align=left;overflow=fill;html=1;whiteSpace=wrap;" vertex="1" parent="1">
          <mxGeometry x="550" y="210" width="130" height="110" as="geometry" />
        </mxCell>
        <mxCell id="SCgbZ-K9dKOpTMKbeCM--18" value="&lt;p style=&quot;margin:0px;margin-top:4px;text-align:center;&quot;&gt;&lt;br&gt;&lt;b&gt;EmployeeDiscountStrategy&lt;/b&gt;&lt;/p&gt;&lt;hr size=&quot;1&quot; style=&quot;border-style:solid;&quot;&gt;&lt;p style=&quot;margin:0px;margin-left:4px;&quot;&gt;&lt;br&gt;&lt;/p&gt;&lt;hr size=&quot;1&quot; style=&quot;border-style:solid;&quot;&gt;&lt;p style=&quot;margin:0px;margin-left:4px;&quot;&gt;+&amp;nbsp;calculateDiscount&lt;/p&gt;" style="verticalAlign=top;align=left;overflow=fill;html=1;whiteSpace=wrap;" vertex="1" parent="1">
          <mxGeometry x="800" y="250" width="170" height="110" as="geometry" />
        </mxCell>
        <mxCell id="SCgbZ-K9dKOpTMKbeCM--19" value="&lt;p style=&quot;margin:0px;margin-top:4px;text-align:center;&quot;&gt;&lt;br&gt;&lt;b&gt;AffiliateDiscountStrategy&lt;/b&gt;&lt;/p&gt;&lt;hr size=&quot;1&quot; style=&quot;border-style:solid;&quot;&gt;&lt;p style=&quot;margin:0px;margin-left:4px;&quot;&gt;&lt;br&gt;&lt;/p&gt;&lt;hr size=&quot;1&quot; style=&quot;border-style:solid;&quot;&gt;&lt;p style=&quot;margin:0px;margin-left:4px;&quot;&gt;+&amp;nbsp;calculateDiscount&lt;/p&gt;" style="verticalAlign=top;align=left;overflow=fill;html=1;whiteSpace=wrap;" vertex="1" parent="1">
          <mxGeometry x="300" y="193" width="170" height="110" as="geometry" />
        </mxCell>
        <mxCell id="SCgbZ-K9dKOpTMKbeCM--20" value="&lt;p style=&quot;margin:0px;margin-top:4px;text-align:center;&quot;&gt;&lt;br&gt;&lt;b&gt;LoyalUserDiscountStrategy&lt;/b&gt;&lt;/p&gt;&lt;hr size=&quot;1&quot; style=&quot;border-style:solid;&quot;&gt;&lt;p style=&quot;margin:0px;margin-left:4px;&quot;&gt;&lt;br&gt;&lt;/p&gt;&lt;hr size=&quot;1&quot; style=&quot;border-style:solid;&quot;&gt;&lt;p style=&quot;margin:0px;margin-left:4px;&quot;&gt;+&amp;nbsp;calculateDiscount&lt;/p&gt;" style="verticalAlign=top;align=left;overflow=fill;html=1;whiteSpace=wrap;" vertex="1" parent="1">
          <mxGeometry x="320" y="380" width="170" height="110" as="geometry" />
        </mxCell>
        <mxCell id="SCgbZ-K9dKOpTMKbeCM--21" value="&lt;p style=&quot;margin:0px;margin-top:4px;text-align:center;&quot;&gt;&lt;br&gt;&lt;b&gt;NoDiscountStrategy&lt;/b&gt;&lt;/p&gt;&lt;hr size=&quot;1&quot; style=&quot;border-style:solid;&quot;&gt;&lt;p style=&quot;margin:0px;margin-left:4px;&quot;&gt;&lt;br&gt;&lt;/p&gt;&lt;hr size=&quot;1&quot; style=&quot;border-style:solid;&quot;&gt;&lt;p style=&quot;margin:0px;margin-left:4px;&quot;&gt;+&amp;nbsp;calculateDiscount&lt;/p&gt;" style="verticalAlign=top;align=left;overflow=fill;html=1;whiteSpace=wrap;" vertex="1" parent="1">
          <mxGeometry x="600" y="410" width="140" height="110" as="geometry" />
        </mxCell>
        <mxCell id="SCgbZ-K9dKOpTMKbeCM--26" value="Use" style="endArrow=open;endSize=12;dashed=1;html=1;rounded=0;exitX=1;exitY=0.5;exitDx=0;exitDy=0;entryX=0;entryY=0.5;entryDx=0;entryDy=0;" edge="1" parent="1" source="5d2195bd80daf111-18" target="SCgbZ-K9dKOpTMKbeCM--1">
          <mxGeometry width="160" relative="1" as="geometry">
            <mxPoint x="150" y="150" as="sourcePoint" />
            <mxPoint x="310" y="150" as="targetPoint" />
            <Array as="points">
              <mxPoint x="110" y="103" />
              <mxPoint x="110" y="27" />
            </Array>
          </mxGeometry>
        </mxCell>
        <mxCell id="SCgbZ-K9dKOpTMKbeCM--27" value="Use" style="endArrow=open;endSize=12;dashed=1;html=1;rounded=0;entryX=0;entryY=0.5;entryDx=0;entryDy=0;exitX=1;exitY=0.5;exitDx=0;exitDy=0;" edge="1" parent="1" source="SCgbZ-K9dKOpTMKbeCM--1" target="SCgbZ-K9dKOpTMKbeCM--5">
          <mxGeometry width="160" relative="1" as="geometry">
            <mxPoint x="350" y="40" as="sourcePoint" />
            <mxPoint x="160" y="37" as="targetPoint" />
            <Array as="points">
              <mxPoint x="380" y="27" />
              <mxPoint x="380" y="103" />
            </Array>
          </mxGeometry>
        </mxCell>
        <mxCell id="SCgbZ-K9dKOpTMKbeCM--28" value="" style="endArrow=block;dashed=1;endFill=0;endSize=12;html=1;rounded=0;exitX=0;exitY=0.5;exitDx=0;exitDy=0;entryX=1;entryY=0.5;entryDx=0;entryDy=0;" edge="1" parent="1" source="SCgbZ-K9dKOpTMKbeCM--17" target="SCgbZ-K9dKOpTMKbeCM--19">
          <mxGeometry width="160" relative="1" as="geometry">
            <mxPoint x="380" y="320" as="sourcePoint" />
            <mxPoint x="540" y="320" as="targetPoint" />
          </mxGeometry>
        </mxCell>
        <mxCell id="SCgbZ-K9dKOpTMKbeCM--29" value="" style="endArrow=block;dashed=1;endFill=0;endSize=12;html=1;rounded=0;exitX=0;exitY=1;exitDx=0;exitDy=0;entryX=1;entryY=0;entryDx=0;entryDy=0;" edge="1" parent="1" source="SCgbZ-K9dKOpTMKbeCM--17" target="SCgbZ-K9dKOpTMKbeCM--20">
          <mxGeometry width="160" relative="1" as="geometry">
            <mxPoint x="470" y="245" as="sourcePoint" />
            <mxPoint x="580" y="295" as="targetPoint" />
          </mxGeometry>
        </mxCell>
        <mxCell id="SCgbZ-K9dKOpTMKbeCM--30" value="" style="endArrow=block;dashed=1;endFill=0;endSize=12;html=1;rounded=0;entryX=0.5;entryY=0;entryDx=0;entryDy=0;exitX=0.5;exitY=1;exitDx=0;exitDy=0;" edge="1" parent="1" source="SCgbZ-K9dKOpTMKbeCM--17" target="SCgbZ-K9dKOpTMKbeCM--21">
          <mxGeometry width="160" relative="1" as="geometry">
            <mxPoint x="405" y="300" as="sourcePoint" />
            <mxPoint x="415" y="380" as="targetPoint" />
          </mxGeometry>
        </mxCell>
        <mxCell id="SCgbZ-K9dKOpTMKbeCM--31" value="" style="endArrow=block;dashed=1;endFill=0;endSize=12;html=1;rounded=0;entryX=0;entryY=0.5;entryDx=0;entryDy=0;exitX=1;exitY=0.5;exitDx=0;exitDy=0;" edge="1" parent="1" source="SCgbZ-K9dKOpTMKbeCM--17" target="SCgbZ-K9dKOpTMKbeCM--18">
          <mxGeometry width="160" relative="1" as="geometry">
            <mxPoint x="633" y="330" as="sourcePoint" />
            <mxPoint x="630" y="410" as="targetPoint" />
          </mxGeometry>
        </mxCell>
        <mxCell id="SCgbZ-K9dKOpTMKbeCM--34" value="Use" style="endArrow=open;endSize=12;dashed=1;html=1;rounded=0;exitX=0.585;exitY=1.002;exitDx=0;exitDy=0;entryX=0.5;entryY=0;entryDx=0;entryDy=0;exitPerimeter=0;" edge="1" parent="1" source="SCgbZ-K9dKOpTMKbeCM--5" target="SCgbZ-K9dKOpTMKbeCM--17">
          <mxGeometry width="160" relative="1" as="geometry">
            <mxPoint x="740" y="180" as="sourcePoint" />
            <mxPoint x="900" y="180" as="targetPoint" />
          </mxGeometry>
        </mxCell>
        <mxCell id="SCgbZ-K9dKOpTMKbeCM--36" value="Use" style="endArrow=open;endSize=12;dashed=1;html=1;rounded=0;exitX=0.5;exitY=1;exitDx=0;exitDy=0;entryX=0.5;entryY=0;entryDx=0;entryDy=0;" edge="1" parent="1" source="SCgbZ-K9dKOpTMKbeCM--16" target="SCgbZ-K9dKOpTMKbeCM--12">
          <mxGeometry width="160" relative="1" as="geometry">
            <mxPoint x="220" y="310" as="sourcePoint" />
            <mxPoint x="380" y="310" as="targetPoint" />
          </mxGeometry>
        </mxCell>
        <mxCell id="SCgbZ-K9dKOpTMKbeCM--37" value="JWTService" style="swimlane;fontStyle=1;align=center;verticalAlign=top;childLayout=stackLayout;horizontal=1;startSize=26;horizontalStack=0;resizeParent=1;resizeParentMax=0;resizeLast=0;collapsible=1;marginBottom=0;whiteSpace=wrap;html=1;" vertex="1" parent="1">
          <mxGeometry x="-105" y="590" width="285" height="250" as="geometry">
            <mxRectangle x="335" y="270" width="160" height="30" as="alternateBounds" />
          </mxGeometry>
        </mxCell>
        <mxCell id="SCgbZ-K9dKOpTMKbeCM--38" value="-secretKey: String&lt;div&gt;-jwtExpirationTime: long&lt;/div&gt;" style="text;strokeColor=none;fillColor=none;align=left;verticalAlign=top;spacingLeft=4;spacingRight=4;overflow=hidden;rotatable=0;points=[[0,0.5],[1,0.5]];portConstraint=eastwest;whiteSpace=wrap;html=1;" vertex="1" parent="SCgbZ-K9dKOpTMKbeCM--37">
          <mxGeometry y="26" width="285" height="44" as="geometry" />
        </mxCell>
        <mxCell id="SCgbZ-K9dKOpTMKbeCM--39" value="" style="line;strokeWidth=1;fillColor=none;align=left;verticalAlign=middle;spacingTop=-1;spacingLeft=3;spacingRight=3;rotatable=0;labelPosition=right;points=[];portConstraint=eastwest;strokeColor=inherit;" vertex="1" parent="SCgbZ-K9dKOpTMKbeCM--37">
          <mxGeometry y="70" width="285" height="10" as="geometry" />
        </mxCell>
        <mxCell id="SCgbZ-K9dKOpTMKbeCM--40" value="+generateToken&lt;div&gt;+extractUsername&lt;/div&gt;&lt;div&gt;+extractExpiration&lt;/div&gt;&lt;div&gt;+extractClaim&lt;/div&gt;&lt;div&gt;+getExpirationTime&lt;/div&gt;&lt;div&gt;+validateToken&lt;/div&gt;&lt;div&gt;+createToken&lt;/div&gt;&lt;div&gt;-getSignedKey&lt;/div&gt;&lt;div&gt;-isTokenExpired&lt;/div&gt;&lt;div&gt;-extractAllClaims&lt;/div&gt;&lt;div&gt;&lt;br&gt;&lt;/div&gt;" style="text;strokeColor=none;fillColor=none;align=left;verticalAlign=top;spacingLeft=4;spacingRight=4;overflow=hidden;rotatable=0;points=[[0,0.5],[1,0.5]];portConstraint=eastwest;whiteSpace=wrap;html=1;" vertex="1" parent="SCgbZ-K9dKOpTMKbeCM--37">
          <mxGeometry y="80" width="285" height="170" as="geometry" />
        </mxCell>
        <mxCell id="SCgbZ-K9dKOpTMKbeCM--41" value="&lt;p style=&quot;margin:0px;margin-top:4px;text-align:center;&quot;&gt;&lt;i&gt;&amp;lt;&amp;lt;Interface&amp;gt;&amp;gt;&lt;/i&gt;&lt;br&gt;&lt;b&gt;UserRepository&lt;/b&gt;&lt;/p&gt;&lt;hr size=&quot;1&quot; style=&quot;border-style:solid;&quot;&gt;&lt;p style=&quot;margin:0px;margin-left:4px;&quot;&gt;&lt;br&gt;&lt;/p&gt;&lt;hr size=&quot;1&quot; style=&quot;border-style:solid;&quot;&gt;&lt;p style=&quot;margin:0px;margin-left:4px;&quot;&gt;+&amp;nbsp;findByUsername&lt;/p&gt;" style="verticalAlign=top;align=left;overflow=fill;html=1;whiteSpace=wrap;" vertex="1" parent="1">
          <mxGeometry x="300" y="550" width="130" height="110" as="geometry" />
        </mxCell>
        <mxCell id="SCgbZ-K9dKOpTMKbeCM--42" value="Use" style="endArrow=open;endSize=12;dashed=1;html=1;rounded=0;exitX=0.473;exitY=1.134;exitDx=0;exitDy=0;entryX=0.5;entryY=0;entryDx=0;entryDy=0;exitPerimeter=0;" edge="1" parent="1" source="SCgbZ-K9dKOpTMKbeCM--15" target="SCgbZ-K9dKOpTMKbeCM--37">
          <mxGeometry width="160" relative="1" as="geometry">
            <mxPoint x="55" y="313" as="sourcePoint" />
            <mxPoint x="55" y="390" as="targetPoint" />
          </mxGeometry>
        </mxCell>
        <mxCell id="SCgbZ-K9dKOpTMKbeCM--43" value="Use" style="endArrow=open;endSize=12;dashed=1;html=1;rounded=0;exitX=0.992;exitY=1.11;exitDx=0;exitDy=0;entryX=0;entryY=0;entryDx=0;entryDy=0;exitPerimeter=0;" edge="1" parent="1" source="SCgbZ-K9dKOpTMKbeCM--15" target="SCgbZ-K9dKOpTMKbeCM--41">
          <mxGeometry width="160" relative="1" as="geometry">
            <mxPoint x="47" y="545" as="sourcePoint" />
            <mxPoint x="48" y="600" as="targetPoint" />
          </mxGeometry>
        </mxCell>
        <mxCell id="SCgbZ-K9dKOpTMKbeCM--44" value="WebSecurityConfig" style="swimlane;fontStyle=1;align=center;verticalAlign=top;childLayout=stackLayout;horizontal=1;startSize=26;horizontalStack=0;resizeParent=1;resizeParentMax=0;resizeLast=0;collapsible=1;marginBottom=0;whiteSpace=wrap;html=1;" vertex="1" parent="1">
          <mxGeometry x="535" y="560" width="270" height="120" as="geometry">
            <mxRectangle x="335" y="270" width="160" height="30" as="alternateBounds" />
          </mxGeometry>
        </mxCell>
        <mxCell id="SCgbZ-K9dKOpTMKbeCM--45" value="-authenticationProvider: AuthenticationProvider&lt;div&gt;-jwtFilter: JWTFilter&lt;/div&gt;" style="text;strokeColor=none;fillColor=none;align=left;verticalAlign=top;spacingLeft=4;spacingRight=4;overflow=hidden;rotatable=0;points=[[0,0.5],[1,0.5]];portConstraint=eastwest;whiteSpace=wrap;html=1;" vertex="1" parent="SCgbZ-K9dKOpTMKbeCM--44">
          <mxGeometry y="26" width="270" height="44" as="geometry" />
        </mxCell>
        <mxCell id="SCgbZ-K9dKOpTMKbeCM--46" value="" style="line;strokeWidth=1;fillColor=none;align=left;verticalAlign=middle;spacingTop=-1;spacingLeft=3;spacingRight=3;rotatable=0;labelPosition=right;points=[];portConstraint=eastwest;strokeColor=inherit;" vertex="1" parent="SCgbZ-K9dKOpTMKbeCM--44">
          <mxGeometry y="70" width="270" height="10" as="geometry" />
        </mxCell>
        <mxCell id="SCgbZ-K9dKOpTMKbeCM--47" value="+securityFilterChain&lt;br&gt;&lt;div&gt;&lt;br&gt;&lt;/div&gt;" style="text;strokeColor=none;fillColor=none;align=left;verticalAlign=top;spacingLeft=4;spacingRight=4;overflow=hidden;rotatable=0;points=[[0,0.5],[1,0.5]];portConstraint=eastwest;whiteSpace=wrap;html=1;" vertex="1" parent="SCgbZ-K9dKOpTMKbeCM--44">
          <mxGeometry y="80" width="270" height="40" as="geometry" />
        </mxCell>
        <mxCell id="SCgbZ-K9dKOpTMKbeCM--48" value="JWTFilter" style="swimlane;fontStyle=1;align=center;verticalAlign=top;childLayout=stackLayout;horizontal=1;startSize=26;horizontalStack=0;resizeParent=1;resizeParentMax=0;resizeLast=0;collapsible=1;marginBottom=0;whiteSpace=wrap;html=1;" vertex="1" parent="1">
          <mxGeometry x="470" y="760" width="310" height="130" as="geometry">
            <mxRectangle x="335" y="270" width="160" height="30" as="alternateBounds" />
          </mxGeometry>
        </mxCell>
        <mxCell id="SCgbZ-K9dKOpTMKbeCM--49" value="-jwtService: JWTService&lt;div&gt;-userDetailsService: CustomUserDetails&lt;/div&gt;&lt;div&gt;-handlerExceptionResolver: HandlerExceptionResolver&lt;/div&gt;" style="text;strokeColor=none;fillColor=none;align=left;verticalAlign=top;spacingLeft=4;spacingRight=4;overflow=hidden;rotatable=0;points=[[0,0.5],[1,0.5]];portConstraint=eastwest;whiteSpace=wrap;html=1;" vertex="1" parent="SCgbZ-K9dKOpTMKbeCM--48">
          <mxGeometry y="26" width="310" height="54" as="geometry" />
        </mxCell>
        <mxCell id="SCgbZ-K9dKOpTMKbeCM--50" value="" style="line;strokeWidth=1;fillColor=none;align=left;verticalAlign=middle;spacingTop=-1;spacingLeft=3;spacingRight=3;rotatable=0;labelPosition=right;points=[];portConstraint=eastwest;strokeColor=inherit;" vertex="1" parent="SCgbZ-K9dKOpTMKbeCM--48">
          <mxGeometry y="80" width="310" height="10" as="geometry" />
        </mxCell>
        <mxCell id="SCgbZ-K9dKOpTMKbeCM--51" value="&lt;div&gt;+doFilterChain&lt;/div&gt;" style="text;strokeColor=none;fillColor=none;align=left;verticalAlign=top;spacingLeft=4;spacingRight=4;overflow=hidden;rotatable=0;points=[[0,0.5],[1,0.5]];portConstraint=eastwest;whiteSpace=wrap;html=1;" vertex="1" parent="SCgbZ-K9dKOpTMKbeCM--48">
          <mxGeometry y="90" width="310" height="40" as="geometry" />
        </mxCell>
        <mxCell id="SCgbZ-K9dKOpTMKbeCM--52" value="Use" style="endArrow=open;endSize=12;dashed=1;html=1;rounded=0;entryX=1.013;entryY=0.17;entryDx=0;entryDy=0;entryPerimeter=0;exitX=0;exitY=0;exitDx=0;exitDy=0;" edge="1" parent="1" source="SCgbZ-K9dKOpTMKbeCM--48" target="SCgbZ-K9dKOpTMKbeCM--40">
          <mxGeometry width="160" relative="1" as="geometry">
            <mxPoint x="30" y="930" as="sourcePoint" />
            <mxPoint x="190" y="930" as="targetPoint" />
            <Array as="points">
              <mxPoint x="410" y="700" />
            </Array>
          </mxGeometry>
        </mxCell>
        <mxCell id="SCgbZ-K9dKOpTMKbeCM--55" value="User" style="swimlane;fontStyle=1;align=center;verticalAlign=top;childLayout=stackLayout;horizontal=1;startSize=26;horizontalStack=0;resizeParent=1;resizeParentMax=0;resizeLast=0;collapsible=1;marginBottom=0;whiteSpace=wrap;html=1;" vertex="1" parent="1">
          <mxGeometry x="-150" y="900" width="195" height="120" as="geometry" />
        </mxCell>
        <mxCell id="SCgbZ-K9dKOpTMKbeCM--56" value="-id: String&lt;div&gt;-username: String&lt;/div&gt;&lt;div&gt;-password: String&lt;/div&gt;&lt;div&gt;-userType: UserTypeEnum&lt;/div&gt;&lt;div&gt;-userCreationDate: LocalDate&lt;/div&gt;" style="text;strokeColor=none;fillColor=none;align=left;verticalAlign=top;spacingLeft=4;spacingRight=4;overflow=hidden;rotatable=0;points=[[0,0.5],[1,0.5]];portConstraint=eastwest;whiteSpace=wrap;html=1;" vertex="1" parent="SCgbZ-K9dKOpTMKbeCM--55">
          <mxGeometry y="26" width="195" height="94" as="geometry" />
        </mxCell>
        <mxCell id="SCgbZ-K9dKOpTMKbeCM--59" value="CustomUserDetails" style="swimlane;fontStyle=1;align=center;verticalAlign=top;childLayout=stackLayout;horizontal=1;startSize=26;horizontalStack=0;resizeParent=1;resizeParentMax=0;resizeLast=0;collapsible=1;marginBottom=0;whiteSpace=wrap;html=1;" vertex="1" parent="1">
          <mxGeometry x="120" y="910" width="140" height="130" as="geometry">
            <mxRectangle x="335" y="270" width="160" height="30" as="alternateBounds" />
          </mxGeometry>
        </mxCell>
        <mxCell id="SCgbZ-K9dKOpTMKbeCM--60" value="-user: User" style="text;strokeColor=none;fillColor=none;align=left;verticalAlign=top;spacingLeft=4;spacingRight=4;overflow=hidden;rotatable=0;points=[[0,0.5],[1,0.5]];portConstraint=eastwest;whiteSpace=wrap;html=1;" vertex="1" parent="SCgbZ-K9dKOpTMKbeCM--59">
          <mxGeometry y="26" width="140" height="34" as="geometry" />
        </mxCell>
        <mxCell id="SCgbZ-K9dKOpTMKbeCM--61" value="" style="line;strokeWidth=1;fillColor=none;align=left;verticalAlign=middle;spacingTop=-1;spacingLeft=3;spacingRight=3;rotatable=0;labelPosition=right;points=[];portConstraint=eastwest;strokeColor=inherit;" vertex="1" parent="SCgbZ-K9dKOpTMKbeCM--59">
          <mxGeometry y="60" width="140" height="10" as="geometry" />
        </mxCell>
        <mxCell id="SCgbZ-K9dKOpTMKbeCM--62" value="&lt;div&gt;+getAuthorities&lt;/div&gt;&lt;div&gt;+getPassword&lt;/div&gt;&lt;div&gt;+getUsername&lt;/div&gt;" style="text;strokeColor=none;fillColor=none;align=left;verticalAlign=top;spacingLeft=4;spacingRight=4;overflow=hidden;rotatable=0;points=[[0,0.5],[1,0.5]];portConstraint=eastwest;whiteSpace=wrap;html=1;" vertex="1" parent="SCgbZ-K9dKOpTMKbeCM--59">
          <mxGeometry y="70" width="140" height="60" as="geometry" />
        </mxCell>
        <mxCell id="SCgbZ-K9dKOpTMKbeCM--63" value="Use" style="endArrow=open;endSize=12;dashed=1;html=1;rounded=0;exitX=-0.008;exitY=-0.023;exitDx=0;exitDy=0;exitPerimeter=0;entryX=0.995;entryY=0.423;entryDx=0;entryDy=0;entryPerimeter=0;" edge="1" parent="1" source="SCgbZ-K9dKOpTMKbeCM--62" target="SCgbZ-K9dKOpTMKbeCM--56">
          <mxGeometry width="160" relative="1" as="geometry">
            <mxPoint x="260" y="980" as="sourcePoint" />
            <mxPoint x="420" y="980" as="targetPoint" />
          </mxGeometry>
        </mxCell>
        <mxCell id="SCgbZ-K9dKOpTMKbeCM--64" value="CustomUserDetailsService" style="swimlane;fontStyle=1;align=center;verticalAlign=top;childLayout=stackLayout;horizontal=1;startSize=26;horizontalStack=0;resizeParent=1;resizeParentMax=0;resizeLast=0;collapsible=1;marginBottom=0;whiteSpace=wrap;html=1;" vertex="1" parent="1">
          <mxGeometry x="235" y="775" width="190" height="100" as="geometry">
            <mxRectangle x="335" y="270" width="160" height="30" as="alternateBounds" />
          </mxGeometry>
        </mxCell>
        <mxCell id="SCgbZ-K9dKOpTMKbeCM--65" value="-userRepository: UserRepostiroy" style="text;strokeColor=none;fillColor=none;align=left;verticalAlign=top;spacingLeft=4;spacingRight=4;overflow=hidden;rotatable=0;points=[[0,0.5],[1,0.5]];portConstraint=eastwest;whiteSpace=wrap;html=1;" vertex="1" parent="SCgbZ-K9dKOpTMKbeCM--64">
          <mxGeometry y="26" width="190" height="34" as="geometry" />
        </mxCell>
        <mxCell id="SCgbZ-K9dKOpTMKbeCM--66" value="" style="line;strokeWidth=1;fillColor=none;align=left;verticalAlign=middle;spacingTop=-1;spacingLeft=3;spacingRight=3;rotatable=0;labelPosition=right;points=[];portConstraint=eastwest;strokeColor=inherit;" vertex="1" parent="SCgbZ-K9dKOpTMKbeCM--64">
          <mxGeometry y="60" width="190" height="10" as="geometry" />
        </mxCell>
        <mxCell id="SCgbZ-K9dKOpTMKbeCM--67" value="+loadUserByUsername" style="text;strokeColor=none;fillColor=none;align=left;verticalAlign=top;spacingLeft=4;spacingRight=4;overflow=hidden;rotatable=0;points=[[0,0.5],[1,0.5]];portConstraint=eastwest;whiteSpace=wrap;html=1;" vertex="1" parent="SCgbZ-K9dKOpTMKbeCM--64">
          <mxGeometry y="70" width="190" height="30" as="geometry" />
        </mxCell>
        <mxCell id="SCgbZ-K9dKOpTMKbeCM--68" value="Use" style="endArrow=open;endSize=12;dashed=1;html=1;rounded=0;exitX=0.475;exitY=1.105;exitDx=0;exitDy=0;exitPerimeter=0;entryX=0.619;entryY=0.02;entryDx=0;entryDy=0;entryPerimeter=0;" edge="1" parent="1" source="SCgbZ-K9dKOpTMKbeCM--47" target="SCgbZ-K9dKOpTMKbeCM--48">
          <mxGeometry width="160" relative="1" as="geometry">
            <mxPoint x="620" y="710" as="sourcePoint" />
            <mxPoint x="780" y="710" as="targetPoint" />
          </mxGeometry>
        </mxCell>
        <mxCell id="SCgbZ-K9dKOpTMKbeCM--69" value="Use" style="endArrow=open;endSize=12;dashed=1;html=1;rounded=0;exitX=0.456;exitY=-0.028;exitDx=0;exitDy=0;exitPerimeter=0;entryX=0.449;entryY=0.987;entryDx=0;entryDy=0;entryPerimeter=0;" edge="1" parent="1" source="SCgbZ-K9dKOpTMKbeCM--64" target="SCgbZ-K9dKOpTMKbeCM--41">
          <mxGeometry x="-0.2844" y="5" width="160" relative="1" as="geometry">
            <mxPoint x="330" y="740" as="sourcePoint" />
            <mxPoint x="490" y="740" as="targetPoint" />
            <mxPoint as="offset" />
          </mxGeometry>
        </mxCell>
        <mxCell id="SCgbZ-K9dKOpTMKbeCM--70" value="&lt;p style=&quot;margin:0px;margin-top:4px;text-align:center;&quot;&gt;&lt;i&gt;&amp;lt;&amp;lt;Interface&amp;gt;&amp;gt;&lt;/i&gt;&lt;br&gt;&lt;b&gt;UserDetails&lt;/b&gt;&lt;/p&gt;&lt;hr size=&quot;1&quot; style=&quot;border-style:solid;&quot;&gt;&lt;p style=&quot;margin:0px;margin-left:4px;&quot;&gt;&lt;br&gt;&lt;/p&gt;&lt;p style=&quot;margin:0px;margin-left:4px;&quot;&gt;&lt;br&gt;&lt;/p&gt;" style="verticalAlign=top;align=left;overflow=fill;html=1;whiteSpace=wrap;" vertex="1" parent="1">
          <mxGeometry x="380" y="1000" width="130" height="50" as="geometry" />
        </mxCell>
        <mxCell id="SCgbZ-K9dKOpTMKbeCM--71" value="&lt;p style=&quot;margin:0px;margin-top:4px;text-align:center;&quot;&gt;&lt;i&gt;&amp;lt;&amp;lt;Interface&amp;gt;&amp;gt;&lt;/i&gt;&lt;br&gt;&lt;b&gt;UserDetailsService&lt;/b&gt;&lt;/p&gt;&lt;hr size=&quot;1&quot; style=&quot;border-style:solid;&quot;&gt;&lt;p style=&quot;margin:0px;margin-left:4px;&quot;&gt;&lt;br&gt;&lt;/p&gt;&lt;p style=&quot;margin:0px;margin-left:4px;&quot;&gt;&lt;br&gt;&lt;/p&gt;" style="verticalAlign=top;align=left;overflow=fill;html=1;whiteSpace=wrap;" vertex="1" parent="1">
          <mxGeometry x="400" y="920" width="130" height="50" as="geometry" />
        </mxCell>
        <mxCell id="SCgbZ-K9dKOpTMKbeCM--72" value="" style="endArrow=block;dashed=1;endFill=0;endSize=12;html=1;rounded=0;exitX=0;exitY=0.5;exitDx=0;exitDy=0;entryX=0.989;entryY=0.22;entryDx=0;entryDy=0;entryPerimeter=0;" edge="1" parent="1" source="SCgbZ-K9dKOpTMKbeCM--70" target="SCgbZ-K9dKOpTMKbeCM--61">
          <mxGeometry width="160" relative="1" as="geometry">
            <mxPoint x="340" y="920" as="sourcePoint" />
            <mxPoint x="500" y="920" as="targetPoint" />
          </mxGeometry>
        </mxCell>
        <mxCell id="SCgbZ-K9dKOpTMKbeCM--73" value="" style="endArrow=block;dashed=1;endFill=0;endSize=12;html=1;rounded=0;entryX=0.506;entryY=0.987;entryDx=0;entryDy=0;entryPerimeter=0;exitX=0;exitY=0;exitDx=0;exitDy=0;" edge="1" parent="1" source="SCgbZ-K9dKOpTMKbeCM--71" target="SCgbZ-K9dKOpTMKbeCM--67">
          <mxGeometry width="160" relative="1" as="geometry">
            <mxPoint x="330" y="910" as="sourcePoint" />
            <mxPoint x="490" y="910" as="targetPoint" />
          </mxGeometry>
        </mxCell>
      </root>
    </mxGraphModel>
  </diagram>
</mxfile>
